<?xml version="1.0" encoding="UTF-8" standalone="no"?>
<svg
   xmlns:dc="http://purl.org/dc/elements/1.1/"
   xmlns:cc="http://creativecommons.org/ns#"
   xmlns:rdf="http://www.w3.org/1999/02/22-rdf-syntax-ns#"
   xmlns:svg="http://www.w3.org/2000/svg"
   xmlns="http://www.w3.org/2000/svg"
   xmlns:sodipodi="http://sodipodi.sourceforge.net/DTD/sodipodi-0.dtd"
   xmlns:inkscape="http://www.inkscape.org/namespaces/inkscape"
   width="480"
   height="480"
   viewBox="0 0 127 127"
   version="1.1"
   id="svg940"
   inkscape:version="1.0.1 (3bc2e813f5, 2020-09-07)"
   sodipodi:docname="favicon.svg">
  <defs
     id="defs934" />
  <sodipodi:namedview
     id="base"
     pagecolor="#ffffff"
     bordercolor="#666666"
     borderopacity="1.0"
     inkscape:pageopacity="0.0"
     inkscape:pageshadow="2"
     inkscape:zoom="0.49497475"
     inkscape:cx="516.10305"
     inkscape:cy="276.23905"
     inkscape:document-units="mm"
     inkscape:current-layer="layer1"
     inkscape:document-rotation="0"
     showgrid="false"
     inkscape:snap-bbox="true"
     inkscape:snap-global="false"
     units="px"
     width="480px"
     inkscape:window-width="1360"
     inkscape:window-height="705"
     inkscape:window-x="-8"
     inkscape:window-y="42"
     inkscape:window-maximized="1" />
  <metadata
     id="metadata937">
    <rdf:RDF>
      <cc:Work
         rdf:about="">
        <dc:format>image/svg+xml</dc:format>
        <dc:type
           rdf:resource="http://purl.org/dc/dcmitype/StillImage" />
        <dc:title />
      </cc:Work>
    </rdf:RDF>
  </metadata>
  <g
     inkscape:label="Layer 1"
     inkscape:groupmode="layer"
     id="layer1"
     style="opacity:0.999">
    <circle
       style="opacity:0.998;fill:#ffffff;fill-opacity:1;stroke:none;stroke-width:1.27;stroke-miterlimit:4;stroke-dasharray:none;stroke-opacity:1"
       id="path2890"
       cx="63.501972"
       cy="63.543888"
       r="62.67828" />
    <g
       id="g2176"
       transform="matrix(0.14762848,0,0,0.14762848,-0.43211782,8.8225884)"
       style="fill:#077dc1;fill-opacity:1;stroke-width:1.79223">
      <path
         fill="#03356e"
         opacity="1"
         stroke="none"
         d="m 463.19818,358.97516 c -0.21072,-0.69794 -0.42148,-1.39585 -0.34882,-2.61572 0.27115,-1.48304 0.25892,-2.44407 0.27405,-3.55616 0.0274,-0.151 -0.006,-0.45605 0.37802,-0.42376 0.76984,-0.36542 1.15531,-0.76316 1.54081,-1.16089 -4.01435,-3.09537 -8.02872,-6.19077 -12.04319,-9.25226 -1.2e-4,0.0339 0.0675,0.0294 0.20652,-0.34033 -0.31022,-0.47721 -0.75943,-0.58463 -1.2071,-0.65903 0.002,0.033 0.0666,0.0211 0.0876,-0.32767 -0.64944,-0.38211 -1.31995,-0.41546 -2.155,-0.77685 -0.93399,-2.08448 -1.7034,-3.84091 -3.11755,-7.06906 -1.73697,2.66836 -3.92377,4.57669 -3.58402,5.75863 1.41986,4.93869 3.59839,9.65924 5.49887,14.45972 3.62528,14.51053 7.76306,28.92059 10.63681,43.57846 1.24005,6.32495 -0.39291,13.16782 -0.25589,19.76578 0.17276,8.32077 0.90848,16.62811 1.24582,24.94757 0.74332,18.33264 1.98007,36.57895 7.34003,54.30255 0.34549,1.14249 -0.81867,3.22665 -1.89237,4.19305 -1.4136,1.27231 -3.43368,1.87088 -6.1448,3.23966 2.39423,2.44827 4.1145,4.93017 6.45651,6.46069 5.97351,3.90384 12.27173,7.30655 18.34708,11.06021 3.79095,2.34229 8.681,4.56177 8.39151,9.66016 -0.3111,5.47931 -6.11481,5.38007 -9.92697,6.80444 -10.99115,4.10681 -22.07135,3.9234 -33.28949,0.38599 -9.97275,-3.14465 -20.14524,-5.65204 -30.16858,-8.64496 -1.32935,-0.39703 -3.0474,-1.84955 -3.29242,-3.07226 -0.69742,-3.48047 -0.7265,-7.09491 -1.05774,-11.13349 -5.9288,-2.30737 -6.00189,-7.91519 -5.66101,-13.79019 0.85742,-14.77683 2.52875,-29.57724 2.20785,-44.33194 -0.32852,-15.10291 -2.95727,-30.14191 -3.94131,-45.25043 -0.47107,-7.23248 -2.69727,-13.40188 -6.47336,-19.44659 -11.5433,-18.47846 -22.59433,-37.26755 -34.32135,-55.62631 -3.62662,-5.67746 -8.96033,-10.23816 -13.23614,-15.53324 -7.01746,-8.69024 -21.02906,-6.53525 -26.32993,0.75962 -5.74435,7.90515 -11.81934,15.9104 -15.66589,24.7763 -6.13556,14.14179 -11.37711,28.80127 -15.49777,43.65762 -6.53208,23.5503 -12.27003,47.34705 -17.48111,71.22782 -3.18479,14.59491 -4.66697,29.55713 -7.1731,44.3103 -0.28516,1.67893 -2.12604,4.23309 -3.45789,4.37393 -3.5317,0.37348 -4.82379,2.5163 -4.92141,5.20392 -0.1735,4.77686 -0.0681,9.63245 0.62179,14.35272 0.69004,4.72132 -0.63504,7.52228 -5.15585,9.30793 -12.11402,4.78497 -24.21193,6.82702 -35.8494,-0.73145 -2.3396,-1.51953 -4.59047,-5.25293 -4.55729,-7.93683 0.081,-6.5534 1.52352,-13.08996 2.50463,-20.26754 -0.75469,-0.0831 -2.29081,-0.24119 -3.82409,-0.42307 -5.59848,-0.66406 -6.06616,-1.34024 -4.37639,-6.55759 7.02556,-21.69183 14.12587,-43.35962 21.08493,-65.07272 6.57954,-20.5289 9.32037,-41.69727 12.23231,-63.04096 5.42231,-39.74404 17.86052,-77.74786 34.64513,-114.26168 1.99594,-4.34211 3.74512,-8.97994 4.52329,-13.66112 1.56652,-9.42378 5.79483,-17.58672 10.48019,-25.65563 0.94897,-1.63427 1.52649,-3.48425 2.72867,-5.67651 1.19922,-3.41415 1.94507,-6.38655 2.70648,-9.33963 0.0156,0.0193 -0.031,0.0103 0.3208,-0.037 0.75775,-1.25633 1.1637,-2.46538 1.56967,-3.67442 -0.60281,-0.0793 -1.20562,-0.15868 -2.087,-0.28709 -0.77341,-0.30779 -1.26825,-0.56647 -1.97071,-1.1186 -8.89065,-1.97181 -17.56079,-3.72619 -26.27758,-5.20605 -0.83326,-0.14146 -1.95737,1.42992 -2.94644,2.20613 0.91244,0.64621 1.82491,1.29244 2.73901,1.94978 0.002,0.0111 0.027,0.006 -0.10514,0.37235 -3.47683,3.24538 -6.82156,6.12445 -10.16629,9.00352 0,0 -0.14862,0.18856 -0.67767,0.0877 -4.229,0.10162 -7.92937,0.45138 -11.62874,0.44125 -1.71266,-0.005 -3.42338,-0.71085 -5.13499,-1.09898 0,0 -0.0392,-0.0751 0.0445,-0.44657 -0.62626,-1.35588 -1.14584,-2.60522 -2.08053,-3.27687 -3.3077,-2.37685 -7.19553,-4.22098 -6.82973,-9.317 0.0101,-0.14063 -1.44241,-0.38622 -2.21289,-0.58286 0,0 -0.10278,-0.4104 0.0364,-0.65457 0.13921,-0.24417 -0.0636,-0.33445 -0.0636,-0.33445 0,0 0.16834,0.42376 0.16834,0.42376 0,0 -0.0793,0.37458 -0.53377,0.19806 -1.33047,-0.0509 -2.20651,0.0747 -3.08255,0.20035 -1.41168,-0.0803 -2.82335,-0.16057 -4.80383,-0.70715 -3.24124,-1.7445 -5.84825,-3.19239 -8.60382,-4.25504 -2.9913,-1.15356 -6.1325,-1.98262 -7.33982,2.48305 0,0 -0.21734,-0.20349 -0.36152,-0.0988 -0.39398,0.34563 -0.64382,0.58654 -0.89363,0.82743 -13.8021,9.93759 -17.61602,24.96278 -20.04894,40.42233 -4.57942,29.09914 -3.71905,58.46489 -3.50281,87.7787 0.24956,33.82748 0.40813,67.66071 -3.6586,101.31491 -3.74043,30.95389 -10.58763,61.05258 -27.05345,88.10285 -19.38382,31.84405 -48.2011,50.26471 -84.0715,58.47119 -0.782005,0.17895 -1.589981,0.24426 -2.838242,0.42981 -0.782241,-3.72644 -1.516685,-7.22522 -2.297699,-10.94592 6.91758,-2.17115 13.633141,-3.97407 20.130585,-6.36878 36.136416,-13.31842 58.534956,-39.77625 71.487536,-75.18601 9.12423,-24.94384 13.47072,-50.9046 14.64944,-77.24194 1.325,-29.60562 1.34307,-59.27383 1.69672,-88.9176 0.32974,-27.64203 -0.3956,-55.33846 4.53135,-82.71072 2.46427,-13.69047 6.20284,-26.95929 15.20234,-38.06731 4.60499,-5.68396 10.29084,-9.86745 17.2637,-12.28198 1.66102,-0.57518 3.10194,-1.76369 4.74275,-2.42553 1.87546,-0.75647 3.88219,-1.80592 5.79472,-1.7344 5.43978,0.20337 10.86063,0.91234 17.05921,1.49466 0,-4.86208 0.57109,-9.2809 -0.11922,-13.49298 -1.42431,-8.69075 -3.42232,-17.29438 -5.42613,-25.87737 -0.39586,-1.69557 -1.8844,-3.13402 -2.85982,-4.69679 -1.6105,-2.58031 -4.25273,-5.03313 -4.6015,-7.77602 -0.70781,-5.5663 -0.442,-11.30848 -0.0662,-16.94407 0.30359,-4.55322 10.19194,-10.083689 14.48425,-8.508807 1.50919,0.553726 3.07114,0.963661 5.87613,1.831123 -1.26199,-1.608421 -1.70383,-2.171539 -2.19954,-2.803329 11.75418,-8.888199 25.10358,-8.933601 38.51321,-6.284149 21.0333,4.155723 42.04886,3.629326 63.1254,1.129028 2.48575,-0.294891 4.84476,-2.884071 7.19904,-2.791717 4.21313,0.165268 8.49133,1.215637 12.53289,2.536727 4.56812,1.49321 8.90558,3.692162 13.80191,5.973526 0.79993,0.506333 1.1413,0.62336 1.48264,0.740395 0,0 0.15784,-0.195053 0.19861,0.164917 0.69531,0.742165 1.34982,1.124344 2.00436,1.506531 0,0 0.21118,0.285045 0.53208,0.648105 3.69998,3.41443 7.07907,6.46581 10.44732,9.48796 -0.0108,-0.0292 -0.0718,-0.0159 -0.22705,0.29318 0.108,0.67479 0.37128,1.04049 0.63452,1.40618 0.18162,-0.55415 0.36319,-1.1083 0.55616,-2.04912 -0.74536,-1.39634 -1.50208,-2.406 -2.2638,-3.42748 -0.005,-0.0118 -0.0274,0.0104 0.0446,-0.36459 -0.085,-1.16884 0.038,-2.34939 -0.44208,-2.69685 -4.96057,-3.590529 -4.8222,-8.818259 -4.26614,-13.918616 0.64053,-5.875214 1.95566,-11.674118 2.80871,-17.530793 0.2277,-1.56324 -0.16256,-3.216491 -0.26913,-4.828414 0,0 -0.0156,-0.494866 0.44522,-0.840424 1.49298,-2.02771 2.78928,-3.604057 3.5126,-5.409916 3.56812,-8.908153 10.73417,-14.04554 19.33619,-16.415932 10.7463,-2.961258 21.40313,-1.45269 31.21966,4.378456 1.18625,0.704644 2.73657,0.79636 4.11813,1.172158 0,0 -0.22238,0.232223 -0.17257,0.499019 3.13748,6.948777 6.64456,13.498768 6.16452,21.246331 -0.0293,0.47258 1.07965,1.015686 1.65896,1.525978 0,7e-6 0.11988,0.112144 0.0909,0.522125 1.15271,1.410561 2.22998,2.583488 3.53787,3.375702 2.69,1.629333 5.50333,3.055046 8.26587,4.564552 -0.16687,0.458084 -0.33374,0.916161 -0.50064,1.374237 -3.89563,-0.514328 -7.79126,-1.028656 -11.97934,-1.581604 -0.66983,5.318352 -1.28321,10.188561 -1.89658,15.058762 0,0 -0.31906,-0.117928 -0.4975,-0.119789 -0.4657,0.904915 -0.75296,1.811691 -1.04022,2.718475 0.012,0.776497 0.024,1.552983 -0.24286,2.970433 -0.24032,3.40925 0.001,6.19719 -0.2637,8.93617 -0.10504,1.08646 -1.38187,2.97957 -2.04309,2.94481 -4.71939,-0.24817 -5.5546,2.31759 -5.4195,6.25033 0.0469,1.367 -0.88369,2.80606 -1.50137,4.15087 -2.96179,6.44818 -0.52576,11.18292 6.62021,12.78265 0,0 -0.009,0.0115 0.103,0.22984 0.31701,0.4979 0.58746,0.67911 0.92382,0.762 0,0 -0.0404,0.0145 -0.034,0.37066 2.32525,2.45833 4.64407,4.56047 6.96292,6.66262 0,0 0.0335,-0.0188 0.11859,0.20872 0.26035,0.49017 0.4993,0.66657 0.80194,0.75673 0,0 0.28632,0.21191 0.25156,0.78713 1.72513,4.89909 3.43741,9.24363 5.29486,13.52519 0.28769,0.66316 1.24029,1.03785 1.88541,1.54596 0.15976,0.16163 0.31955,0.32325 0.58731,1.19566 1.05432,3.85864 2.0509,6.99248 2.93637,10.15738 1.75839,6.28494 4.10766,12.49307 5.03094,18.90318 1.53162,10.63349 1.92853,21.42583 3.22397,32.10024 0.49481,4.07745 1.15262,7.70536 -2.00546,11.13127 -0.99604,1.0805 -0.79041,3.26872 -1.3895,6.19371 2.68579,-0.83762 4.2309,-1.50844 5.84207,-1.76677 1.49594,-0.23985 3.96909,-0.62149 4.4202,0.0812 1.14615,1.7853 1.53427,4.11564 1.97589,6.27882 0.46503,2.27812 0.323,4.71535 1.01279,6.90454 1.17483,3.72858 1.53403,6.70258 -1.81119,9.92319 -1.73087,1.66638 -2.23596,5.27536 -2.20004,7.99222 0.15918,12.04342 0.72613,24.0813 1.12378,36.12188 0.28824,8.72727 -1.48905,17.65161 2.79571,25.98075 1.57627,3.06418 2.62741,6.39868 4.206,9.46148 1.69305,3.28485 3.13757,7.01068 5.7153,9.46997 8.9476,8.53647 18.33709,16.6099 27.56476,24.85254 3.07086,2.74305 6.15588,5.47037 9.24243,8.19586 11.23749,9.92316 22.75647,19.5488 33.63385,29.85203 9.4461,8.94754 17.91058,18.92636 27.2738,27.96795 11.99664,11.58469 28.27277,14.06989 43.30866,18.95148 6.52697,2.11905 13.51763,2.81033 20.29766,4.15009 0,0 -0.0923,0.0223 -0.0856,0.35867 0.55158,1.49783 0.85602,2.87753 1.68006,3.78555 5.56329,6.12997 11.49597,11.94226 16.81451,18.27286 8.24164,9.80966 9.09637,9.22735 3.27063,18.54526 -0.34125,0.54577 -0.37353,1.2911 -0.73401,1.81723 -1.06,1.5473 -2.21295,3.03088 -3.32953,4.53942 -0.4367,-0.32263 -0.87335,-0.64526 -1.31006,-0.96789 0.39362,-1.23547 0.78718,-2.47095 1.18073,-3.70642 -0.32721,-0.1586 -0.65448,-0.31723 -0.98175,-0.47586 -0.7829,1.28155 -1.56574,2.56308 -2.69196,3.84503 -0.87957,0.35324 -1.41589,0.70608 -1.92749,1.06271 0.0248,0.004 0.0301,-0.046 -0.23034,0.0312 -0.43573,0.37403 -0.61096,0.67066 -0.76612,0.96802 0.0201,7.3e-4 0.0202,-0.0394 -0.32196,-0.0903 -1.40313,0.35382 -2.46405,0.75848 -3.91253,1.14288 -1.49561,0.64832 -2.6037,1.31684 -4.03003,2.02259 -0.79407,0.65631 -1.26996,1.27533 -2.11621,1.91369 -2.34894,1.04059 -4.54786,1.78339 -6.26148,3.13941 -3.91962,3.10168 -7.60205,6.50305 -11.59784,10.01446 -1.6322,1.14099 -3.04742,2.05029 -4.84332,2.93274 -1.18085,0.67554 -1.98108,1.37799 -2.79724,2.08099 -0.0159,6.8e-4 0.0186,0.0219 -0.36933,-0.034 -1.20959,-0.003 -2.24035,-0.25171 -2.82092,0.14996 -6.37488,4.41052 -12.69879,8.89612 -18.97082,13.45178 -0.56299,0.40894 -0.66767,1.44886 -1.15485,2.43341 -0.68402,0.49347 -1.1983,0.74933 -1.90698,0.75037 -3.60388,-0.34674 -5.6557,1.22919 -6.2688,4.68225 -0.0572,0.0393 -0.17298,0.11591 -0.50684,-0.0456 -0.86432,0.45398 -1.39465,1.06952 -2.00573,1.62262 -0.0807,-0.0624 0.10516,0.0218 -0.22718,-0.006 -0.75348,0.39337 -1.1745,0.81476 -1.71814,1.06653 -0.12268,-0.16968 0.14765,0.15002 -0.19049,0.0762 -0.68658,0.37586 -1.03497,0.8255 -1.43036,1.27905 -0.0469,0.004 -0.10589,0.0771 -0.37793,0.001 -0.46423,0.21252 -0.65643,0.50073 -0.97058,0.59265 -0.12188,-0.19641 0.13813,0.18683 -0.24481,0.0886 -1.40692,0.26782 -2.46814,0.55475 -3.44769,1.0152 -2.53577,1.1922 -5.03559,2.46088 -7.6352,3.74115 1.90339,4.56903 7.51185,1.8797 11.00379,4.28686 -0.28034,1.2154 -0.42627,2.10846 -0.57221,3.00159 -6e-5,0 -0.31866,-0.24426 -0.55541,-0.22693 -8.64136,-4.53015 -19.27845,-4.22558 -25.81617,-13.16955 -3.58362,-4.90265 -4.87597,-6.21405 -0.46588,-8.61688 1.96539,-1.07081 4.02979,-4.32093 7.35278,-1.74482 0.52546,0.40735 3.17151,-0.84314 3.8631,-1.94079 1.69715,-2.69367 2.82593,-5.74543 4.26172,-9 1.07037,-2.13507 2.06232,-3.92328 3.2959,-5.86164 0.39044,-0.68371 0.53931,-1.21716 0.69824,-2.16882 -0.019,-1.53278 -0.0482,-2.64734 -0.0773,-3.76196 0,0 0.0925,0.11419 0.36078,0.0682 0.77301,-0.67749 1.27759,-1.30889 2.00916,-2.10522 0.3775,-0.68781 0.52801,-1.21069 0.71044,-1.77857 0.0319,-0.045 0.11078,-0.12213 0.30164,-0.20825 0.42975,-0.25268 0.58777,-0.4765 0.93066,-0.99383 1.41199,-3.81385 2.55817,-7.39142 3.70429,-10.96894 0,0 0.0843,0.10791 0.38641,0.062 1.51093,-1.50125 3.03308,-2.79853 3.86377,-4.44465 1.77808,-3.52343 2.96564,-7.35305 4.83691,-10.81869 1.5918,-2.94788 1.05231,-5.10983 -1.4829,-6.82239 -2.9748,-2.0094 -3.79456,-4.70599 -3.55256,-8.11954 0.12305,-1.73669 -0.52203,-3.51507 -0.56945,-5.28137 -0.0287,-1.07345 0.42047,-2.15973 1.03222,-3.28143 3.70154,-1.51245 7.02588,-2.9837 9.54291,-4.09769 -4.69672,-2.16635 -11.21545,-3.76312 -15.90387,-7.59775 -14.55072,-11.90097 -28.38422,-24.67718 -42.53778,-37.06594 -13.50366,-11.81974 -27.05982,-23.57944 -40.70203,-35.47904 -0.29129,-0.21533 -0.48492,-0.28561 -0.78521,-0.67715 -1.17621,-1.28836 -2.25715,-2.22388 -3.42621,-3.3866 -0.49063,-0.4895 -0.89322,-0.7518 -1.41938,-1.3176 -1.83215,-1.95663 -3.54071,-3.60974 -5.27484,-5.61645 -0.73486,-0.78458 -1.44412,-1.21555 -2.02408,-1.74542 0.12934,-0.0989 -0.1108,0.12115 -0.0756,-0.25678 -1.04162,-1.00378 -2.11841,-1.62967 -3.25683,-2.29641 -0.0616,-0.0409 -0.15833,-0.15278 -0.0302,-0.51188 -0.79685,-0.8862 -1.72184,-1.4133 -2.57041,-2.0086 0.0764,-0.0683 -0.0638,0.0815 -0.0726,-0.24619 -0.48242,-0.57147 -0.95596,-0.81528 -1.49429,-1.10977 -0.0647,-0.0507 -0.18637,-0.16144 -0.0116,-0.52649 -0.784,-0.81305 -1.74271,-1.26108 -2.7319,-1.70477 -0.0305,0.004 -0.0908,-0.008 0.003,-0.36914 -1.45785,-1.82288 -3.52106,-4.81919 -4.47836,-4.49991 -6.87409,2.29281 -12.02518,-0.47638 -16.93674,-4.6492 m -83.27063,-105.263 c 0.1944,0.26346 0.43176,0.47978 0.98782,1.25436 1.44956,1.3487 2.89911,2.69739 4.34867,4.04608 0.32577,-0.37997 0.65155,-0.75995 0.97732,-1.13989 -1.68692,-1.35605 -3.37387,-2.71208 -5.31982,-4.47371 -0.21643,-0.25256 -0.48572,-0.42018 -1.10684,-0.91522 -0.3822,-0.0367 -0.76444,-0.0733 -1.14664,-0.10996 0.34158,0.30602 0.6832,0.61205 1.25949,1.33834 m 7.96228,5.67673 c -0.27844,0.0619 -0.55688,0.12384 -0.83533,0.18576 0.17923,0.26919 0.35846,0.53836 0.77692,1.44116 1.34613,1.09839 2.69229,2.19677 4.03842,3.29516 0.27942,-0.36138 0.55881,-0.72277 0.83823,-1.08416 -1.49274,-1.1587 -2.98544,-2.31736 -4.81824,-3.83792 m 33.59467,31.06918 c 1.50235,0.86468 3.0047,1.72937 4.51757,2.53982 0,0 -0.0535,0.0137 -0.58434,0.5998 8.65243,7.71563 17.28585,15.45291 25.98895,23.11096 0.80545,0.70871 2.05392,0.91391 3.80627,1.33417 3.03693,1.2063 6.07385,2.41262 8.88229,3.97656 0,0 0.24384,-0.34921 0.1,0.30588 0.91666,0.61544 1.83331,1.23089 3.41232,1.79477 0.22062,-0.0195 0.4412,-0.0389 1.3497,-0.27857 -0.58947,-3.6824 -0.45651,-7.68045 -1.90194,-10.98889 -4.60401,-10.53833 -11.56882,-19.99954 -13.62488,-31.71314 -1.09015,-6.2109 -3.09424,-7.41351 -10.22775,-7.98208 0,0 -0.17835,-0.29401 -0.1749,-1.14777 -0.77594,-2.27377 1.72015,-5.62112 -2.08395,-6.96078 0,0 -0.13239,0.14746 -0.0179,-0.65241 -1.44189,-2.78985 -2.88376,-5.57974 -4.59942,-8.76069 0,0 0.0371,-0.47594 0.71539,-0.80651 0.83823,-2.36395 2.10464,-3.42598 4.97763,-3.00328 2.23596,0.32895 4.66162,-0.63183 7.51355,-1.41934 0.85318,-0.22035 1.70639,-0.44072 2.49466,-0.6443 -4.38745,-1.32723 -8.56732,-2.59165 -13.01871,-4.51952 0.0844,-0.92561 0.16886,-1.85124 0.7248,-3.17863 -0.13041,-0.54966 -0.26084,-1.09929 -0.29096,-2.14452 -0.0952,-0.31937 -0.19031,-0.63872 -0.19076,-1.46484 -0.084,-0.14995 -0.16788,-0.29991 -0.24039,-1.247 -0.18915,-1.04219 -0.3783,-2.08438 -0.45294,-3.84414 -0.68439,-2.00867 -1.36875,-4.01734 -2.20551,-6.67842 -1.7616,-2.26815 -3.52319,-4.53631 -5.86764,-7.55486 -5.14832,7.94185 -9.69992,14.96318 -14.9719,22.02251 -4.09625,3.76346 -5.41302,8.43863 -4.51178,14.53405 -0.17047,0.42571 -0.34091,0.8514 -1.14999,1.54357 -3.71289,6.24325 -1.35462,11.87353 1.55823,17.5751 0.61398,1.20185 0.14419,2.95731 -0.47348,4.2692 -2.68906,-2.28537 -5.37812,-4.57071 -8.06717,-6.85605 -0.38208,0.48578 -0.76413,0.97156 -1.14621,1.45734 3.41858,2.45532 6.83719,4.91061 10.27832,7.32403 0,0 -0.0435,0.0192 -0.26096,0.71628 2.07874,1.44208 4.1575,2.88415 6.25879,4.28275 0,0 -0.0412,0.0266 -0.48511,0.61611 1.17481,1.10386 2.34961,2.20771 3.97013,3.84284 M 258.80222,173.64854 c 1.56457,3.18943 4.19299,4.0008 7.64102,4.41327 13.73236,1.64283 27.88443,0.43526 40.92343,5.97675 3.21676,-11.74693 6.37524,-23.28095 9.88339,-36.09192 -10.18448,3.68263 -17.47299,-1.01659 -25.16061,-4.56233 -4.93881,-2.27794 -10.20356,-3.9085 -15.42633,-5.484 -2.26477,-0.68319 -4.27753,-0.44491 -5.11219,2.93555 -0.4729,1.91551 -3.20907,3.2475 -4.86526,4.90299 -1.49365,1.49302 -3.80762,2.87121 -4.19504,4.64234 -1.62826,7.44391 -2.66974,15.01618 -3.68841,23.26735 m 101.05914,61.76273 c 1.17239,1.81819 2.34479,3.63638 3.51718,5.45459 0.53748,-0.39505 1.07498,-0.7901 1.61246,-1.18515 -1.49948,-1.42621 -2.99897,-2.8524 -5.12964,-4.26944 m 6.46634,6.99315 c 1.2402,1.43008 2.4804,2.86017 3.72064,4.29027 0.46332,-0.59941 0.92667,-1.19883 1.39001,-1.79824 -1.69592,-1.04339 -3.39184,-2.08677 -5.11065,-2.49203 m 27.34417,-128.34271 c -0.0795,-0.10363 -0.15893,-0.20725 -0.23837,-0.31086 0.0757,0.0231 0.1514,0.0462 0.23837,0.31086 m 60.78614,134.42945 c 0,0 0.04,0.0223 0,0 z"
         id="path4"
         style="fill:#077dc1;fill-opacity:1;stroke-width:2.43792" />
      <path
         fill="#067ec1"
         opacity="1"
         stroke="none"
         d="m 420.04755,626.09271 c 117.95141,2.84558 233.82721,-9.26904 347.85229,-37.11053 1.93274,4.69623 3.81232,9.26318 5.92615,14.39935 -1.32257,0.43256 -2.77497,1.039 -4.28705,1.38293 -39.81268,9.05744 -80.03442,15.65333 -120.58551,20.39942 -75.7533,8.86603 -151.77152,11.70685 -227.97739,10.33874 -51.31903,-0.92132 -102.54138,-3.67211 -153.53784,-9.65557 -44.86902,-5.26453 -89.45155,-12.25086 -132.09653,-27.88471 -12.76262,-4.67883 -24.85112,-11.20239 -37.218707,-16.94495 -1.439293,-0.66827 -2.687798,-1.74749 -4.946907,-3.24926 38.246174,-13.81598 65.378504,-38.62744 82.003494,-74.5903 9.35098,9.9277 18.43828,19.55587 27.48131,29.22543 0.53587,0.573 0.90413,1.44708 1.03448,2.23334 1.94524,11.73333 10.77851,16.42633 20.49201,20.39264 3.16813,1.2937 6.42143,2.81677 9.03468,4.96582 40.66881,33.44482 87.45348,52.9801 139.19923,60.93341 15.60965,2.39929 31.42347,3.46978 47.62629,5.16424 z"
         id="path6"
         style="fill:#077dc1;fill-opacity:1;stroke-width:2.43792" />
      <path
         fill="#077dc1"
         opacity="1"
         stroke="none"
         d="m 662.46942,401.26062 c 0,0 -0.27643,-0.0251 -0.41046,-0.47949 -5.90888,-4.08863 -11.35413,-8.46454 -17.52533,-11.20682 -14.01556,-6.22797 -28.29791,-11.89392 -42.66608,-17.26883 -4.83758,-1.80966 -10.26214,-2.05048 -15.41839,-3.00827 0,0 -0.2284,0.11127 -0.54157,-0.2738 -4.12744,-1.31882 -7.90301,-2.47342 -11.76257,-3.14734 -15.11035,-2.63858 -30.24719,-5.12534 -45.37415,-7.66852 0,0 0.20331,-0.15793 0.14612,-0.42841 -0.64911,-2.01968 -1.24103,-3.76886 -1.83295,-5.51806 0.41285,0.006 0.82575,0.0125 1.71351,0.46692 6.9862,1.048 13.49487,1.67761 20.0094,2.23996 7.54223,0.65103 15.08136,1.3865 22.6372,1.81396 5.82892,0.32977 11.68158,0.24066 17.52368,0.33777 1.07093,0.0462 2.14191,0.0924 3.72797,0.60169 6.31806,1.52523 12.16541,2.39034 17.91516,3.68786 14.96344,3.37668 29.93591,6.73822 44.80567,10.49741 12.30401,3.11053 24.45446,6.82513 36.69958,10.1745 3.77106,1.03146 7.63001,1.7416 11.44867,2.59887 0,0 0.2475,-0.0759 0.49335,0.33774 1.96527,1.3458 3.6167,2.44409 5.41632,3.18027 6.60461,2.70187 13.24536,5.31726 19.89862,7.89789 4.23651,1.64322 8.51922,3.16757 12.78119,4.7452 0,4e-5 -0.0948,0.0951 0.0369,0.36396 1.19312,1.29748 2.08356,2.66449 3.34314,3.30102 9.83203,4.96866 19.30609,10.40515 27.11835,18.37763 1.065,1.08682 2.89294,1.42605 4.36762,2.11145 0,0 -0.0228,0.007 0.004,0.34958 2.26935,2.79269 4.5119,5.24289 6.75446,7.69308 0,0 0.17419,0.0312 0.17578,0.49133 1.15552,3.37198 2.07452,6.40558 3.50922,9.1717 3.66668,7.0697 5.63543,14.76193 5.28064,22.45813 -0.47559,10.31805 -3.6178,20.13723 -9.87806,28.74298 -2.27771,3.1311 -3.93316,6.71484 -5.87262,10.09204 0,0 0.006,0.006 -0.22729,0.10284 -0.40564,0.37485 -0.57776,0.6528 -0.74988,0.93076 0,0 -0.0142,-0.0299 -0.35321,-0.002 -2.43426,2.35467 -4.52948,4.68191 -6.62469,7.00921 -0.17939,0.28974 -0.35877,0.57947 -1.15882,0.909 -1.77026,0.62329 -3.01477,1.07336 -4.05444,1.81177 -7.27594,5.16766 -14.12586,11.0722 -21.84546,15.4469 -12.04547,6.82617 -24.42474,13.19696 -37.12158,18.70221 -12.42877,5.38891 -25.41425,9.50329 -38.21661,14.00286 -0.99238,0.34882 -2.46827,-0.67804 -3.71943,-1.06543 0.3216,-0.19628 0.64313,-0.39257 1.59644,-0.68145 7.88055,-3.45258 15.23852,-6.60309 22.31836,-10.28791 2.42645,-1.26294 4.15686,-3.86346 6.20526,-5.85284 0,0 0.16595,-0.2157 0.67645,-0.1922 1.62305,-1.07397 2.7356,-2.17145 3.84815,-3.26886 0,0 0.10516,0.0299 0.43341,0.10883 3.55707,-2.69031 6.93988,-5.30109 9.98565,-8.25885 9.04377,-8.78278 15.14002,-19.41895 17.0669,-31.82721 1.18616,-7.63843 1.16925,-15.61158 0.50641,-23.33261 -0.38471,-4.48099 -3.11762,-8.76041 -4.79389,-13.13053 0,0 0.12586,-0.0358 0.14807,-0.38495 -1.39624,-3.07071 -2.81463,-5.79233 -4.23309,-8.51394 0,0 0.24634,-0.0999 0.22901,-0.40934 -2.19318,-4.48825 -3.91511,-8.99594 -6.64985,-12.76968 -4.23608,-5.84537 -8.8905,-11.45267 -13.89856,-16.64908 -3.04931,-3.16391 -7.09564,-5.36691 -10.69409,-8.00155 0,0 -0.0471,-0.23127 -0.0463,-0.43848 -0.5448,-0.45371 -1.09046,-0.70017 -1.63611,-0.94666 0,0 0.0154,-0.007 -0.0183,-0.34561 -3.76337,-3.05115 -7.49304,-5.76349 -11.22278,-8.47583 0,0 0.1424,-0.0174 0.11029,-0.32849 -3.48285,-2.40533 -6.93365,-4.49957 -10.3844,-6.59381 z"
         id="path8"
         style="fill:#077dc1;fill-opacity:1;stroke-width:2.43792" />
      <path
         fill="#057ec2"
         opacity="1"
         stroke="none"
         d="m 67.349342,542.26782 c -7.280288,1.68573 -7.312729,1.69751 -9.788875,-5.1156 -7.719002,-21.23865 -1.306996,-39.49075 12.067226,-56.17279 11.398552,-14.21774 25.700188,-25.11477 41.176417,-34.37717 11.97172,-7.16494 24.48182,-13.43216 36.78026,-20.04696 1.54234,-0.82959 3.25396,-1.34439 6.29418,-2.57419 -1.78109,9.21603 -3.07211,17.21292 -4.89561,25.08649 -5.63226,24.31921 -14.72314,46.98376 -32.43315,65.31711 -13.54679,14.02355 -30.112282,22.79571 -49.200448,27.88311 z"
         id="path10"
         style="fill:#077dc1;fill-opacity:1;stroke-width:2.43792" />
      <path
         fill="#1d3f6c"
         opacity="1"
         stroke="none"
         d="m 657.03088,465.59344 c -6.70807,-0.99719 -13.69873,-1.68847 -20.2257,-3.80752 -15.03589,-4.88159 -31.31202,-7.36679 -43.30866,-18.95148 -9.36322,-9.04159 -17.8277,-19.02041 -27.2738,-27.96795 -10.87738,-10.30323 -22.39636,-19.92887 -33.63385,-29.85203 -3.08655,-2.72549 -6.17157,-5.45281 -9.24243,-8.19586 -9.22767,-8.24264 -18.61716,-16.31607 -27.56476,-24.85254 -2.57773,-2.45929 -4.02225,-6.18512 -5.7153,-9.46997 -1.57859,-3.0628 -2.62973,-6.3973 -4.206,-9.46148 -4.28476,-8.32914 -2.50747,-17.25348 -2.79571,-25.98075 -0.39765,-12.04058 -0.9646,-24.07846 -1.12378,-36.12188 -0.0359,-2.71686 0.46917,-6.32584 2.20004,-7.99222 3.34522,-3.22061 2.98602,-6.19461 1.81119,-9.92319 -0.68979,-2.18919 -0.54776,-4.62642 -1.01279,-6.90454 -0.44162,-2.16318 -0.82974,-4.49352 -1.97589,-6.27882 -0.45111,-0.70267 -2.92426,-0.32103 -4.4202,-0.0812 -1.61117,0.25833 -3.15628,0.92915 -5.84207,1.76677 0.59909,-2.92499 0.39346,-5.11321 1.3895,-6.19371 3.15808,-3.42591 2.50027,-7.05382 2.00546,-11.13127 -1.29544,-10.67441 -1.69235,-21.46675 -3.22397,-32.10024 -0.92328,-6.41011 -3.27255,-12.61824 -5.03094,-18.90318 -0.88547,-3.1649 -1.88205,-6.29874 -2.82062,-9.83676 2.45361,4.68933 6.19479,9.55063 7.09402,14.89052 2.37024,14.07522 3.486,28.36065 5.14499,42.55728 0.58017,4.96455 3.7537,9.97799 -0.53366,14.26526 3.24768,0.96395 6.40363,1.44389 9.03855,2.87989 1.27349,0.69407 2.64434,3.73781 2.1166,4.76499 -2.12231,4.13122 -0.83816,7.76796 0.54709,11.53509 1.57624,4.28641 0.6489,7.63565 -3.08124,10.54019 -1.19986,0.93433 -1.91436,3.26325 -1.85583,4.91901 0.42752,12.10034 1.68643,24.19858 1.54333,36.284 -0.13736,11.604 0.31357,22.50805 5.74704,33.41934 3.38086,6.78928 7.40909,12.18893 12.89725,17.02744 20.21488,17.82208 40.47806,35.59439 60.41141,53.72796 6.7409,6.13226 12.71966,13.138 18.75812,19.99854 9.43103,10.71496 20.53631,18.81942 34.17456,23.32431 5.52606,1.82531 10.88403,4.26858 16.51001,5.65204 5.89966,1.45077 12.06659,1.78283 18.03607,2.99975 1.92798,0.39301 3.60058,2.03891 5.46197,3.45419 z"
         id="path12"
         style="fill:#077dc1;fill-opacity:1;stroke-width:2.43792" />
      <path
         fill="#26426c"
         opacity="1"
         stroke="none"
         d="m 463.13025,359.33331 c 4.97949,3.81467 10.13058,6.58386 17.00467,4.29105 0.9573,-0.31928 3.02051,2.67703 4.17575,4.30499 -1.61038,-0.68564 -2.82474,-1.53778 -4.03913,-2.38995 -0.3417,0.44202 -0.68344,0.88406 -1.02517,1.32608 7.2608,6.65967 14.5216,13.31933 21.86892,20.12317 0.0865,0.14413 0.3939,0.28045 0.51145,0.54113 0.56119,0.60239 1.00479,0.9441 1.62955,1.56873 1.88336,1.86844 3.58319,3.45648 5.28796,5.03928 27.51764,25.54858 55.03595,51.09637 82.39545,76.90615 -2.58167,3.74286 0.66034,2.59977 2.10431,3.09287 0.13324,0.16824 0.2127,0.21188 0.29217,0.25552 -0.10797,-0.13394 -0.216,-0.26788 -0.32263,-0.73809 -0.005,-0.78473 -0.0113,-1.23319 0.31177,-1.6352 1.44696,0.75095 2.56445,1.45551 3.682,2.16007 -0.23449,1.08053 -0.68371,2.16681 -0.65496,3.24026 0.0474,1.7663 0.6925,3.54468 0.56945,5.28137 -0.242,3.41355 0.57776,6.11014 3.55256,8.11954 2.53521,1.71256 3.0747,3.87451 1.4829,6.82239 -1.87127,3.46564 -3.05883,7.29526 -4.83691,10.81869 -0.83069,1.64612 -2.35284,2.9434 -3.92371,4.4115 2.56165,-6.26355 5.48536,-12.53982 8.53254,-19.08117 -8.28876,-2.41098 -6.14508,-8.99512 -6.00525,-12.94141 -9.70587,-8.96664 -18.54559,-16.94192 -27.17444,-25.13922 -30.50006,-28.97482 -60.90311,-58.05194 -91.45285,-86.97415 -1.61865,-1.53235 -4.17029,-2.27799 -6.42307,-2.89585 -3.51873,-0.96496 -6.69274,-2.08456 -7.54333,-6.50775 z"
         id="path14"
         style="fill:#077dc1;fill-opacity:1;stroke-width:2.43792" />
      <path
         fill="#1d3f6c"
         opacity="1"
         stroke="none"
         d="m 592.62158,575.21692 c -0.17938,-0.78803 -0.0335,-1.68109 0.24549,-2.89557 0.13293,-0.32135 0.13,-0.31836 0.45501,-0.34607 2.8711,-0.78717 3.8053,-2.02136 1.71955,-4.48175 10.11193,-7.65851 20.05652,-15.0296 30.33203,-22.49225 5.82745,-4.07867 11.32409,-8.06573 17.65295,-12.65649 -1.82648,-0.25202 -2.44208,-0.33698 -3.05768,-0.42194 3.77875,-3.27966 7.46118,-6.68103 11.3808,-9.78271 1.71362,-1.35602 3.91254,-2.09882 6.31519,-3.08808 0.42413,0.032 0.53198,0.1341 0.52612,0.43036 0.4201,0.57007 0.84607,0.84387 1.27203,1.11774 0.17188,-0.52576 0.34375,-1.05152 0.52619,-1.58844 0.0107,-0.0112 0.0345,-0.0309 0.38122,0.0787 1.10053,-0.61712 1.85431,-1.34393 2.6192,-2.08056 0.011,-0.01 0.0344,-0.0283 0.38202,0.0401 1.77851,-0.98023 3.20948,-2.02887 4.64045,-3.07752 0,0 -1.3e-4,0.0402 0.22296,-0.0572 0.40991,-0.38116 0.59668,-0.66485 0.78338,-0.94861 0,0 -0.005,0.0498 0.29474,0.0209 0.8487,-0.36524 1.39734,-0.70166 1.94599,-1.03803 0.78289,-1.28155 1.56573,-2.56308 2.34863,-3.84463 0.32727,0.15863 0.65454,0.31726 0.98175,0.47586 -0.39355,1.23547 -0.78711,2.47095 -1.18073,3.70642 0.43671,0.32263 0.87336,0.64526 1.31006,0.96789 1.11658,-1.50854 2.26953,-2.99212 3.32953,-4.53942 0.36048,-0.52613 0.39276,-1.27146 0.73401,-1.81723 5.82574,-9.31791 4.97101,-8.7356 -3.27063,-18.54526 -5.31854,-6.3306 -11.25122,-12.14289 -16.81451,-18.27286 -0.82404,-0.90802 -1.12848,-2.28772 -1.64716,-3.81979 8.53473,8.73593 17.11414,17.77832 25.47272,27.02044 1.2077,1.33539 2.23352,3.85065 1.83441,5.44132 -1.43512,5.72 -2.34076,11.7893 -7.74689,15.69906 -27.91723,20.18958 -55.78112,40.45295 -83.98883,60.79566 z"
         id="path16"
         style="fill:#077dc1;fill-opacity:1;stroke-width:2.43792" />
      <path
         fill="#3681b5"
         opacity="1"
         stroke="none"
         d="m 662.53278,561.81189 c 1.64074,0.41717 3.11663,1.44403 4.10901,1.09521 12.80236,-4.49957 25.78784,-8.61395 38.21661,-14.00286 12.69684,-5.50525 25.07611,-11.87604 37.12158,-18.70221 7.7196,-4.3747 14.56952,-10.27924 21.84546,-15.4469 1.03967,-0.73841 2.28418,-1.18848 3.79687,-1.75366 -10.88555,7.9298 -21.55804,16.86913 -33.49182,23.55822 -34.52197,19.35016 -71.99408,31.10175 -110.26959,40.45362 -2.74078,0.66973 -5.52136,1.17663 -8.28345,1.75927 -0.19659,-0.72851 -0.39312,-1.45703 -0.58966,-2.18554 7.86493,-2.20935 15.78833,-4.23236 23.57843,-6.67987 7.92743,-2.49067 15.72345,-5.39948 23.96656,-8.09528 z"
         id="path18"
         style="fill:#077dc1;fill-opacity:1;stroke-width:2.43792" />
      <path
         fill="#1280be"
         opacity="1"
         stroke="none"
         d="m 227.54794,403.36224 c -0.89099,1.3725 -1.4835,2.71393 -2.50931,3.31141 -9.43495,5.49529 -18.94493,10.86178 -29.14889,16.67349 0.45744,-5.48368 0.85095,-10.78388 1.40269,-16.06751 0.0679,-0.65066 0.86591,-1.53732 1.51867,-1.76776 9.64273,-3.40436 19.31819,-6.71609 30.08367,-10.42834 -0.54907,3.47302 -0.89921,5.6878 -1.34683,8.27871 z"
         id="path20"
         style="fill:#077dc1;fill-opacity:1;stroke-width:2.43792" />
      <path
         fill="#3885b5"
         opacity="1"
         stroke="none"
         d="m 703.33179,384.40515 c -3.58557,-0.5824 -7.44452,-1.29254 -11.21558,-2.324 -12.24512,-3.34937 -24.39557,-7.06397 -36.69958,-10.1745 -14.86976,-3.75919 -29.84223,-7.12073 -44.80567,-10.49741 -5.74975,-1.29752 -11.5971,-2.16263 -17.54199,-3.53595 10.8194,1.49689 21.95294,2.60642 32.70764,5.25436 24.49292,6.03043 48.80255,12.80613 73.17615,19.31852 1.42987,0.38208 2.76611,1.11465 4.37903,1.95898 z"
         id="path22"
         style="fill:#077dc1;fill-opacity:1;stroke-width:2.43792" />
      <path
         fill="#1d3f6c"
         opacity="1"
         stroke="none"
         d="m 580.85803,540.96991 c -1.35742,2.90771 -2.4862,5.95947 -4.18335,8.65314 -0.69159,1.09765 -3.33764,2.34814 -3.8631,1.94079 -3.32299,-2.57611 -5.38739,0.67401 -7.35278,1.74482 -4.41009,2.40283 -3.11774,3.71423 0.46588,8.61688 6.53772,8.94397 17.17481,8.6394 25.98023,13.28406 -1.20923,0.22454 -3.0163,0.89111 -4.39569,0.3872 -6.39277,-2.33569 -13.04285,-4.35998 -18.83918,-7.78479 -3.35363,-1.9815 -6.05755,-6.07904 -7.60278,-9.82324 -1.59607,-3.86737 2.14423,-6.16968 5.09393,-8.12622 3.76368,-2.49646 7.5669,-4.93323 11.92475,-7.7569 1.30511,-0.61938 2.03863,-0.87756 2.77209,-1.13574 z"
         id="path24"
         style="fill:#077dc1;fill-opacity:1;stroke-width:2.43792" />
      <path
         fill="#3885b5"
         opacity="1"
         stroke="none"
         d="m 586.72272,369.55554 c 4.88269,0.69946 10.30725,0.94028 15.14483,2.74994 14.36817,5.37491 28.65052,11.04086 42.66608,17.26883 6.1712,2.74228 11.61645,7.11819 17.43378,11.10257 -10.1109,-4.86163 -19.9596,-10.82288 -30.4914,-15.10342 -14.55694,-5.91657 -29.62854,-10.56693 -44.75329,-16.01792 z"
         id="path26"
         style="fill:#077dc1;fill-opacity:1;stroke-width:2.43792" />
      <path
         fill="#3885b5"
         opacity="1"
         stroke="none"
         d="m 720.77405,465.52508 c 1.66772,3.96308 4.40063,8.2425 4.78534,12.72349 0.66284,7.72103 0.67975,15.69418 -0.50641,23.33261 -1.92688,12.40826 -8.02313,23.04443 -17.0669,31.82721 -3.04577,2.95776 -6.42858,5.56854 -10.01056,8.21026 5.89277,-7.39868 12.99756,-14.10785 18.20063,-22.06115 9.95361,-15.21473 11.10894,-32.01078 5.79376,-49.30292 -0.43884,-1.42758 -0.79352,-2.88098 -1.19586,-4.7295 z"
         id="path28"
         style="fill:#077dc1;fill-opacity:1;stroke-width:2.43792" />
      <path
         fill="#1d3f6c"
         opacity="1"
         stroke="none"
         d="m 447.09701,49.467697 c -1.25009,-0.07404 -2.80041,-0.165752 -3.98666,-0.870396 -9.81653,-5.831146 -20.47336,-7.339714 -31.21966,-4.378456 -8.60202,2.370392 -15.76807,7.507779 -19.33619,16.415932 -0.72332,1.805859 -2.01962,3.382206 -3.37292,5.205532 4.30817,-21.525707 24.2659,-25.838581 38.83026,-24.477089 7.03085,0.657253 13.60031,2.861656 19.08517,8.104477 z"
         id="path30"
         style="fill:#077dc1;fill-opacity:1;stroke-width:2.43792" />
      <path
         fill="#1d436e"
         opacity="1"
         stroke="none"
         d="m 262.36786,209.12819 c 2.98306,-2.8723 6.32779,-5.75137 10.11639,-8.83754 9.20005,4.48573 18.81055,5.07274 28.43006,5.61639 -0.74585,2.9724 -1.4917,5.9448 -2.60395,8.99532 -0.10632,-1.35983 0.15375,-2.79779 0.50687,-4.75008 -5.68057,-0.998 -11.35251,-1.99423 -17.02432,-2.99124 -0.98282,-0.17277 -2.12482,-0.0842 -2.92212,-0.56555 -6.12769,-3.69911 -11.52701,-3.21809 -16.50293,2.5327 z"
         id="path32"
         style="fill:#077dc1;fill-opacity:1;stroke-width:2.43792" />
      <path
         fill="#3885b5"
         opacity="1"
         stroke="none"
         d="m 777.29102,503.84296 c 1.64221,-3.22614 3.29766,-6.80988 5.57537,-9.94098 6.26026,-8.60575 9.40247,-18.42493 9.87806,-28.74298 0.35479,-7.6962 -1.61396,-15.38843 -5.28064,-22.45813 -1.4347,-2.76612 -2.3537,-5.79972 -3.50666,-9.08319 11.95197,14.14834 13.66828,38.03686 3.6593,55.91467 -2.80957,5.01834 -6.65685,9.45572 -10.32543,14.31061 z"
         id="path34"
         style="fill:#077dc1;fill-opacity:1;stroke-width:2.43792" />
      <path
         fill="#3885b5"
         opacity="1"
         stroke="none"
         d="m 528.87274,358.56445 c 15.02509,2.18628 30.16193,4.67304 45.27228,7.31162 3.85956,0.67392 7.63513,1.82852 11.65918,3.07354 -15.0188,-2.27996 -30.25433,-4.83108 -45.47101,-7.49063 -3.81738,-0.66717 -7.57404,-1.68237 -11.46045,-2.89453 z"
         id="path36"
         style="fill:#077dc1;fill-opacity:1;stroke-width:2.43792" />
      <path
         fill="#1d3f6c"
         opacity="1"
         stroke="none"
         d="m 452.68066,96.131851 c 0.33017,-4.647491 0.94355,-9.5177 1.61338,-14.836052 4.18808,0.552948 8.08371,1.067276 11.97934,1.581604 0.1669,-0.458076 0.33377,-0.916153 0.50064,-1.374237 -2.76254,-1.509506 -5.57587,-2.935219 -8.26587,-4.564552 -1.30789,-0.792214 -2.38516,-1.965141 -3.59439,-3.316177 3.42068,1.249137 7.11148,2.481475 10.24789,4.553047 3.05115,2.015236 5.53442,4.890236 8.26703,7.387718 -0.23236,0.378143 -0.46472,0.756294 -0.69708,1.134437 -5.5387,-1.306175 -11.0774,-2.612358 -16.28501,-3.840461 -1.32293,4.957901 -2.40283,9.004936 -3.76593,13.274673 z"
         id="path38"
         style="fill:#077dc1;fill-opacity:1;stroke-width:2.43792" />
      <path
         fill="#3885b5"
         opacity="1"
         stroke="none"
         d="m 588.62476,356.93219 c -5.49903,0.0904 -11.35169,0.1795 -17.18061,-0.15027 -7.55584,-0.42746 -15.09497,-1.16293 -22.6372,-1.81396 -6.51453,-0.56235 -13.0232,-1.19196 -19.72315,-2.11756 19.60681,1.08093 39.40234,2.48761 59.54096,4.08179 z"
         id="path40"
         style="fill:#077dc1;fill-opacity:1;stroke-width:2.43792" />
      <path
         fill="#3885b5"
         opacity="1"
         stroke="none"
         d="m 685.78638,418.69299 c 3.47906,2.33115 7.52539,4.53415 10.5747,7.69806 5.00806,5.19641 9.66248,10.80371 13.89856,16.64908 2.73474,3.77374 4.45667,8.28143 6.5376,12.84091 -8.33014,-13.7189 -18.78033,-25.9881 -31.01086,-37.18805 z"
         id="path42"
         style="fill:#077dc1;fill-opacity:1;stroke-width:2.43792" />
      <path
         fill="#39496a"
         opacity="1"
         stroke="none"
         d="m 448.6933,352.63361 c -1.86539,-4.42231 -4.04392,-9.14286 -5.46378,-14.08155 -0.33975,-1.18194 1.84705,-3.09027 3.58402,-5.75863 1.41415,3.22815 2.18356,4.98458 3.24786,7.33593 0.86444,0.6829 1.43402,0.77082 2.00363,0.85874 0,3e-5 -0.065,0.0119 -0.05,0.28204 0.36054,0.42194 0.70603,0.57379 1.05152,0.72565 0,0 -0.0676,0.004 -0.0315,0.31402 3.3848,3.55219 6.7334,6.7948 10.08201,10.03742 0,0 0.0337,0.30505 -0.1301,0.66339 -0.36032,0.63419 -0.6156,0.83542 -0.92969,0.96207 -5.04269,-4.66565 -10.08539,-9.3313 -15.61877,-14.43485 -0.77286,-0.002 -1.05497,0.43344 -1.3371,0.86911 1.18558,3.94949 2.37115,7.89896 3.59186,12.22666 z"
         id="path44"
         style="fill:#077dc1;fill-opacity:1;stroke-width:2.43792" />
      <path
         fill="#1d3f6c"
         opacity="1"
         stroke="none"
         d="m 447.8566,136.69296 c -6.99314,-1.30418 -9.42917,-6.03892 -6.46738,-12.4871 0.61768,-1.34481 1.54831,-2.78387 1.50137,-4.15087 -0.1351,-3.93274 0.70011,-6.4985 5.4195,-6.25033 0.66122,0.0348 1.93805,-1.85835 2.04309,-2.94481 0.26486,-2.73898 0.0234,-5.52692 0.20468,-8.55177 0.60501,1.52378 1.07675,3.29045 1.35993,5.08684 1.07717,6.83324 0.0842,8.18555 -5.70029,9.03926 -1.42658,3.29436 -2.76499,6.11062 -3.87018,9.0156 -1.07217,2.81821 -1.84714,5.6128 1.69263,7.59281 1.40667,0.78685 2.45327,2.21734 3.81665,3.65037 z"
         id="path46"
         style="fill:#077dc1;fill-opacity:1;stroke-width:2.43792" />
      <path
         fill="#3885b5"
         opacity="1"
         stroke="none"
         d="m 776.93799,424.67145 c -1.39228,-0.36167 -3.22022,-0.7009 -4.28522,-1.78772 -7.81226,-7.97248 -17.28632,-13.40897 -27.11835,-18.37763 -1.25958,-0.63653 -2.15002,-2.00354 -3.32171,-3.36462 12.98413,5.28433 24.5227,13.19815 34.72528,23.52997 z"
         id="path48"
         style="fill:#077dc1;fill-opacity:1;stroke-width:2.43792" />
      <path
         fill="#3885b5"
         opacity="1"
         stroke="none"
         d="m 741.95837,400.56335 c -4.06598,-1.29986 -8.34869,-2.82421 -12.5852,-4.46743 -6.65326,-2.58063 -13.29401,-5.19602 -19.89862,-7.89789 -1.79962,-0.73618 -3.45105,-1.83447 -5.31323,-3.10208 12.43853,4.8396 25.01977,10.01461 37.79705,15.4674 z"
         id="path50"
         style="fill:#077dc1;fill-opacity:1;stroke-width:2.43792" />
      <path
         fill="#1d3f6c"
         opacity="1"
         stroke="none"
         d="m 388.36868,67.147003 c 0.33457,1.350037 0.72483,3.003288 0.49713,4.566528 -0.85305,5.856675 -2.16818,11.655579 -2.80871,17.530793 -0.55606,5.100357 -0.69443,10.328087 4.26614,13.918616 0.48004,0.34746 0.35712,1.52801 0.17157,2.51508 -2.3681,-1.76758 -4.3937,-3.72841 -6.41931,-5.689243 1.35504,-10.859962 2.71011,-21.719932 4.29318,-32.841774 z"
         id="path52"
         style="fill:#077dc1;fill-opacity:1;stroke-width:2.43792" />
      <path
         fill="#3885b5"
         opacity="1"
         stroke="none"
         d="m 692.69727,545.08234 c -1.70325,1.92651 -3.43366,4.52703 -5.86011,5.78997 -7.07984,3.68482 -14.43781,6.83533 -22.05774,10.17591 8.94348,-5.31391 18.25812,-10.60846 27.91785,-15.96588 z"
         id="path54"
         style="fill:#077dc1;fill-opacity:1;stroke-width:2.43792" />
      <path
         fill="#1d3f6c"
         opacity="1"
         stroke="none"
         d="m 454.97418,72.599731 c -0.6741,-0.06924 -1.78302,-0.612342 -1.75375,-1.084922 0.48004,-7.747563 -3.02704,-14.297554 -6.05097,-21.360657 6.73236,5.660774 7.27506,13.84697 7.80472,22.445579 z"
         id="path56"
         style="fill:#077dc1;fill-opacity:1;stroke-width:2.43792" />
      <path
         fill="#1d436e"
         opacity="1"
         stroke="none"
         d="m 233.66986,195.25439 c 0.58672,-0.11615 2.03922,0.12944 2.02913,0.27007 -0.3658,5.09602 3.52203,6.94015 6.82973,9.317 0.93469,0.67165 1.45427,1.92099 2.04014,3.26412 -2.21223,-0.872 -4.90451,-1.64988 -6.2464,-3.44002 -1.99144,-2.65662 -3.02661,-6.03008 -4.6526,-9.41117 z"
         id="path58"
         style="fill:#077dc1;fill-opacity:1;stroke-width:2.43792" />
      <path
         fill="#1d3f6c"
         opacity="1"
         stroke="none"
         d="m 464.35577,161.47444 c -0.68335,-0.14519 -1.63595,-0.51988 -1.92364,-1.18304 -1.85745,-4.28156 -3.56973,-8.6261 -5.27912,-13.34778 2.44736,4.45744 4.84418,9.31267 7.20276,14.53082 z"
         id="path60"
         style="fill:#077dc1;fill-opacity:1;stroke-width:2.43792" />
      <path
         fill="#26426c"
         opacity="1"
         stroke="none"
         d="m 592.56897,513.0108 c -0.84491,3.41071 -1.99109,6.98828 -3.58911,10.89203 -0.68347,0.49616 -0.84467,0.71741 -0.93549,0.99005 0,0 -0.0789,0.0771 -0.32971,0.28821 -0.40668,0.73316 -0.56256,1.25525 -0.71844,1.77734 -0.50464,0.63148 -1.00922,1.26288 -1.84632,1.90449 2.151,-5.22162 4.63446,-10.4535 7.41907,-15.85212 z"
         id="path62"
         style="fill:#077dc1;fill-opacity:1;stroke-width:2.43792" />
      <path
         fill="#1d436e"
         opacity="1"
         stroke="none"
         d="m 209.64172,192.23526 c 0.8291,-4.40532 3.9703,-3.57626 6.9616,-2.4227 2.75557,1.06265 5.36258,2.51054 8.22818,4.05649 -2.9811,-0.65375 -6.11126,-1.82604 -9.34746,-2.3954 -1.72679,-0.3038 -3.63678,0.43371 -5.84232,0.76161 z"
         id="path64"
         style="fill:#077dc1;fill-opacity:1;stroke-width:2.43792" />
      <path
         fill="#26426c"
         opacity="1"
         stroke="none"
         d="m 580.9364,540.62305 c -0.81183,0.60504 -1.54535,0.86322 -2.54669,1.2528 1.77545,-4.14776 3.81885,-8.427 6.1629,-12.87573 0.32971,0.94513 0.35889,2.05969 0.16052,3.76447 -0.39245,1.10913 -0.55743,1.62805 -0.72247,2.14703 -0.99194,1.78815 -1.98389,3.57636 -3.05426,5.71143 z"
         id="path66"
         style="fill:#077dc1;fill-opacity:1;stroke-width:2.43792" />
      <path
         fill="#1d436e"
         opacity="1"
         stroke="none"
         d="m 244.75835,208.85095 c 1.51805,0.10208 3.22877,0.80824 4.94143,0.81293 3.69937,0.0101 7.39974,-0.33963 11.5128,-0.47241 -5.17663,4.30052 -10.72578,3.07898 -16.45423,-0.34052 z"
         id="path68"
         style="fill:#077dc1;fill-opacity:1;stroke-width:2.43792" />
      <path
         fill="#3885b5"
         opacity="1"
         stroke="none"
         d="m 526.76111,352.13699 c 0.91485,1.87329 1.50677,3.62247 2.06561,5.73392 -2.44946,-1.42337 -4.86584,-3.20898 -8.45056,-5.858 3.0094,0 4.53571,0 6.38495,0.12408 z"
         id="path72"
         style="fill:#077dc1;fill-opacity:1;stroke-width:2.43792" />
      <path
         fill="#3885b5"
         opacity="1"
         stroke="none"
         d="m 672.86029,408.49612 c 3.61298,2.39914 7.34265,5.11148 11.10504,8.1706 -3.64099,-2.38794 -7.31463,-5.12265 -11.10504,-8.1706 z"
         id="path74"
         style="fill:#077dc1;fill-opacity:1;stroke-width:2.43792" />
      <path
         fill="#3885b5"
         opacity="1"
         stroke="none"
         d="m 662.63531,401.56409 c 3.28486,1.79077 6.73566,3.88501 10.16108,6.33337 -3.34858,-1.77393 -6.67188,-3.90192 -10.16108,-6.33337 z"
         id="path76"
         style="fill:#077dc1;fill-opacity:1;stroke-width:2.43792" />
      <path
         fill="#1d3f6c"
         opacity="1"
         stroke="none"
         d="m 455.85898,144.6998 c -2.21265,-1.78832 -4.53147,-3.89046 -6.84213,-6.36493 2.25076,1.76878 4.49334,3.90993 6.84213,6.36493 z"
         id="path78"
         style="fill:#077dc1;fill-opacity:1;stroke-width:2.43792" />
      <path
         fill="#3885b5"
         opacity="1"
         stroke="none"
         d="m 783.7439,432.70648 c -2.20765,-2.11883 -4.4502,-4.56903 -6.71595,-7.37317 2.21149,2.11133 4.44629,4.5766 6.71595,7.37317 z"
         id="path80"
         style="fill:#077dc1;fill-opacity:1;stroke-width:2.43792" />
      <path
         fill="#3885b5"
         opacity="1"
         stroke="none"
         d="m 769.35364,511.92917 c 1.78027,-2.22211 3.87549,-4.54935 6.32257,-6.89264 -1.76795,2.2518 -3.88782,4.51962 -6.32257,6.89264 z"
         id="path82"
         style="fill:#077dc1;fill-opacity:1;stroke-width:2.43792" />
      <path
         fill="#3885b5"
         opacity="1"
         stroke="none"
         d="m 716.72168,456.58594 c 1.37726,2.35482 2.79565,5.07644 4.14819,8.19592 -1.41284,-2.34448 -2.75995,-5.08679 -4.14819,-8.19592 z"
         id="path84"
         style="fill:#077dc1;fill-opacity:1;stroke-width:2.43792" />
      <path
         fill="#3885b5"
         opacity="1"
         stroke="none"
         d="m 697.2558,541.65381 c -0.80133,1.00201 -1.91388,2.09949 -3.40253,3.15198 0.77973,-1.04877 1.93549,-2.05262 3.40253,-3.15198 z"
         id="path86"
         style="fill:#077dc1;fill-opacity:1;stroke-width:2.43792" />
      <path
         fill="#1d3f6c"
         opacity="1"
         stroke="none"
         d="m 451.01367,98.692322 c 0.13333,-0.645859 0.42059,-1.552635 1.03711,-2.378891 -0.0749,0.759659 -0.47903,1.438804 -1.03711,2.378891 z"
         id="path88"
         style="fill:#077dc1;fill-opacity:1;stroke-width:2.43792" />
      <path
         fill="#26426c"
         opacity="1"
         stroke="none"
         d="m 461.99963,354.26148 c 0.37177,-0.41544 0.62705,-0.61667 0.95996,-1.09983 0.14869,0.75372 0.16092,1.71475 -0.12313,2.83249 -0.4957,-0.37686 -0.6951,-0.91037 -0.83683,-1.73266 z"
         id="path90"
         style="fill:#077dc1;fill-opacity:1;stroke-width:2.43792" />
      <path
         fill="#1d436e"
         opacity="1"
         stroke="none"
         d="m 230.31493,194.90057 c 0.57208,-0.25145 1.44812,-0.37707 2.59831,-0.26178 -0.58203,0.2898 -1.43819,0.3387 -2.59831,0.26178 z"
         id="path92"
         style="fill:#077dc1;fill-opacity:1;stroke-width:2.43792" />
      <path
         fill="#aac8e3"
         opacity="1"
         stroke="none"
         d="m 380.98968,99.548553 c -0.60275,-0.06518 -1.25726,-0.447364 -2.0332,-1.092811 0.57956,0.0831 1.28049,0.429459 2.0332,1.092811 z"
         id="path94"
         style="fill:#077dc1;fill-opacity:1;stroke-width:2.43792" />
      <path
         fill="#3885b5"
         opacity="1"
         stroke="none"
         d="m 684.11054,417.26575 c 0.41973,-0.0149 0.96539,0.23156 1.54754,0.79638 -0.44958,0.0339 -0.93561,-0.25051 -1.54754,-0.79638 z"
         id="path96"
         style="fill:#077dc1;fill-opacity:1;stroke-width:2.43792" />
      <path
         fill="#1d436e"
         opacity="1"
         stroke="none"
         d="m 233.65997,194.34918 c -0.0327,0.0272 -0.20102,-0.3966 -0.20102,-0.3966 0,0 0.20278,0.0903 0.25666,0.24803 0.0539,0.15774 -0.023,0.12143 -0.0556,0.14857 z"
         id="path98"
         style="fill:#077dc1;fill-opacity:1;stroke-width:2.43792" />
      <path
         fill="#1d436e"
         opacity="1"
         stroke="none"
         d="m 208.28516,193.0313 c -0.027,-0.24791 0.22284,-0.48882 0.73841,-0.74856 0.0233,0.23931 -0.21913,0.49744 -0.73841,0.74856 z"
         id="path100"
         style="fill:#077dc1;fill-opacity:1;stroke-width:2.43792" />
      <path
         fill="#1d3f6c"
         opacity="1"
         stroke="none"
         d="m 456.87811,145.72086 c -0.29504,0.16806 -0.53399,-0.008 -0.7976,-0.47959 0.20443,-0.0653 0.49722,0.0781 0.7976,0.47959 z"
         id="path102"
         style="fill:#077dc1;fill-opacity:1;stroke-width:2.43792" />
      <path
         fill="#aac8e3"
         opacity="1"
         stroke="none"
         d="m 378.7276,97.922424 c -0.23044,0.154648 -0.57181,0.03762 -1.0481,-0.322601 0.22248,-0.145149 0.57984,-0.04712 1.0481,0.322601 z"
         id="path104"
         style="fill:#077dc1;fill-opacity:1;stroke-width:2.43792" />
      <path
         fill="#1d3f6c"
         opacity="1"
         stroke="none"
         d="m 448.99112,137.70967 c -0.29123,0.18779 -0.56168,0.007 -0.87357,-0.49672 0.20459,-0.0738 0.51651,0.0761 0.87357,0.49672 z"
         id="path106"
         style="fill:#077dc1;fill-opacity:1;stroke-width:2.43792" />
      <path
         fill="#3885b5"
         opacity="1"
         stroke="none"
         d="m 776.28394,504.97711 c -0.0952,-0.22745 0.0769,-0.5054 0.47924,-0.88263 0.0828,0.21122 -0.0646,0.52164 -0.47924,0.88263 z"
         id="path108"
         style="fill:#077dc1;fill-opacity:1;stroke-width:2.43792" />
      <path
         fill="#1f416c"
         opacity="1"
         stroke="none"
         d="m 410.17126,257.09723 c -1.94982,10.05881 2.08921,17.83868 9.5261,24.44089 14.80511,13.14337 29.53866,26.36737 44.46408,39.84085 -2.87464,-0.92353 -5.91156,-2.12985 -9.35608,-3.69602 -6.90174,-6.21817 -13.33194,-12.14969 -19.92005,-17.9003 -2.80892,-2.45181 -5.94781,-4.52557 -8.93676,-6.77111 0,0 0.0535,-0.0137 0.0731,-0.31958 -1.30457,-1.44498 -2.6287,-2.58405 -4.12335,-4.00678 -1.42704,-1.07556 -2.68357,-1.86752 -3.94007,-2.65945 0,0 0.0412,-0.0266 0.0288,-0.35233 -2.01794,-1.76852 -4.02344,-3.2113 -6.02893,-4.65411 0,0 0.0435,-0.0192 0.0796,-0.30915 -0.1272,-0.67556 -0.29047,-1.06125 -0.45371,-1.4469 -0.0296,-1.50036 0.44019,-3.25582 -0.17379,-4.45767 -2.91285,-5.70157 -5.27112,-11.33185 -1.23893,-17.70834 z"
         id="path116"
         style="fill:#077dc1;fill-opacity:1;stroke-width:2.43792" />
      <path
         fill="#cfd8e8"
         opacity="1"
         stroke="none"
         d="m 625.04273,545.0929 c -9.94458,7.37103 -19.88917,14.74212 -30.27979,22.48486 -0.8761,0.74774 -1.30621,1.12378 -2.12763,1.50146 -4.27514,-2.70886 -0.0768,-3.88006 0.6952,-5.70379 0,0 -0.26001,-0.38324 0.10235,-0.206 0.69745,0.0678 0.91071,-0.15716 1.00214,-0.49768 0,0 0.059,-0.0734 0.37433,-0.13751 0.7102,-0.42438 1.1051,-0.78461 1.50006,-1.14484 0,0 -0.27033,-0.3197 0.14471,-0.2091 0.86273,-0.25281 1.31043,-0.61609 1.75812,-0.97937 0,0 -0.18585,-0.0842 0.1701,-0.0841 0.92536,-0.46625 1.49482,-0.93256 2.06433,-1.39886 0,0 0.11579,-0.0766 0.47315,-0.22083 2.2926,-1.53699 4.22784,-2.92969 6.16309,-4.32245 0.51422,-0.25592 1.0285,-0.51178 2.05078,-1.07226 5.60309,-3.66846 10.69812,-7.03235 15.82898,-9.99939 0.0506,0.92791 0.0654,1.45886 0.0801,1.98987 z"
         id="path120"
         style="fill:#077dc1;fill-opacity:1;stroke-width:2.43792" />
      <path
         fill="#1f416c"
         opacity="1"
         stroke="none"
         d="m 468.61331,323.9516 c -2.06527,-4.85254 -3.36789,-10.01267 -5.59585,-14.73633 -4.51935,-9.58197 -10.19077,-18.5776 -12.11264,-29.34683 -0.42038,-2.35584 -4.60691,-4.03961 -7.2092,-6.35819 6.64056,0.21567 8.64465,1.41828 9.7348,7.62918 2.05606,11.7136 9.02087,21.17481 13.62488,31.71314 1.44543,3.30844 1.31247,7.30649 1.55801,11.09903 z"
         id="path122"
         style="fill:#077dc1;fill-opacity:1;stroke-width:2.43792" />
      <path
         fill="#a8c3e3"
         opacity="1"
         stroke="none"
         d="m 425.68314,293.30463 c 3.25436,1.95245 6.39325,4.02621 9.20217,6.47802 6.58811,5.75061 13.01831,11.68213 19.56525,17.90967 -0.98996,-0.0698 -2.23843,-0.27496 -3.04388,-0.98367 -8.7031,-7.65805 -17.33652,-15.39533 -25.72354,-23.40402 z"
         id="path124"
         style="fill:#077dc1;fill-opacity:1;stroke-width:2.43792" />
      <path
         fill="#1d436e"
         opacity="1"
         stroke="none"
         d="m 298.76263,200.80923 c -7.97165,-0.91726 -16.14523,-2.17097 -24.34063,-3.26014 -0.68329,-0.0908 -1.51407,0.92819 -2.21118,1.81521 -0.8473,-0.26255 -1.75977,-0.90878 -2.67221,-1.55499 0.98907,-0.77621 2.11318,-2.34759 2.94644,-2.20613 8.71679,1.47986 17.38693,3.23424 26.27758,5.20605 z"
         id="path128"
         style="fill:#077dc1;fill-opacity:1;stroke-width:2.43792" />
      <path
         fill="#1d3f6c"
         opacity="1"
         stroke="none"
         d="m 624.92682,542.70618 c -5.09503,3.36389 -10.19006,6.72778 -15.62341,10.15863 -0.0208,-0.67993 0.0839,-1.71985 0.64685,-2.12879 6.27203,-4.55566 12.59594,-9.04126 18.97082,-13.45178 0.58057,-0.40167 1.61133,-0.15271 2.63458,0.11859 -2.07519,1.98407 -4.35199,3.64368 -6.62884,5.30335 z"
         id="path130"
         style="fill:#077dc1;fill-opacity:1;stroke-width:2.43792" />
      <path
         fill="#1d3f6c"
         opacity="1"
         stroke="none"
         d="m 592.94757,563.27722 c -0.3891,1.92194 -4.5874,3.09314 -0.31873,6.16766 0.37928,1.09546 0.37372,1.82679 0.36823,2.55811 0,0 0.003,-0.003 0.004,-0.004 -3.62494,-2.08575 -9.2334,0.60358 -11.13679,-3.96545 2.59961,-1.28027 5.09943,-2.54895 7.6352,-3.74115 0.97955,-0.46045 2.04077,-0.74738 3.44769,-1.0152 z"
         id="path132"
         style="fill:#077dc1;fill-opacity:1;stroke-width:2.43792" />
      <path
         fill="#bccce4"
         opacity="1"
         stroke="none"
         d="m 624.96265,543.10303 c 2.24102,-2.05652 4.51782,-3.71613 6.98095,-5.64429 0.18634,-0.26849 0.1518,-0.28973 0.4812,-0.35742 1.17438,-0.70752 2.01941,-1.34735 2.86445,-1.98718 1.41522,-0.90925 2.83044,-1.81855 4.46264,-2.95954 0.83264,-0.14679 1.44824,-0.0618 3.27472,0.19019 -6.32886,4.59076 -11.8255,8.57782 -17.65295,12.65649 -0.34565,-0.43939 -0.36042,-0.97034 -0.41101,-1.89825 z"
         id="path134"
         style="fill:#077dc1;fill-opacity:1;stroke-width:2.43792" />
      <path
         fill="#1f416c"
         opacity="1"
         stroke="none"
         d="m 415.8739,241.13385 c -1.26013,4.40936 -2.88046,8.83769 -4.69922,13.55899 -1.07397,-5.10136 0.2428,-9.77653 4.69922,-13.55899 z"
         id="path140"
         style="fill:#077dc1;fill-opacity:1;stroke-width:2.43792" />
      <path
         fill="#1f416c"
         opacity="1"
         stroke="none"
         d="m 437.68301,248.1073 c 3.71894,0.80353 7.09635,1.74373 10.90665,2.69156 -1.90851,0.39522 -4.33417,1.356 -6.57013,1.02705 -2.87299,-0.4227 -4.1394,0.63933 -5.31677,3.16857 -0.0132,-2.13997 0.31277,-4.44524 0.98025,-6.88718 z"
         id="path142"
         style="fill:#077dc1;fill-opacity:1;stroke-width:2.43792" />
      <path
         fill="#85aad3"
         opacity="1"
         stroke="none"
         d="m 411.26034,279.16901 c 0.48688,0.47988 0.65015,0.86557 0.76609,1.5621 -3.46591,-2.14444 -6.88452,-4.59973 -10.3031,-7.05505 0.38208,-0.48578 0.76413,-0.97156 1.14621,-1.45734 2.68905,2.28534 5.37811,4.57068 8.3908,6.95029 z"
         id="path144"
         style="fill:#077dc1;fill-opacity:1;stroke-width:2.43792" />
      <path
         fill="#1f416c"
         opacity="1"
         stroke="none"
         d="m 440.86868,264.79633 c -1.45144,-2.39966 -2.84564,-5.19928 -4.25412,-8.38422 1.42761,2.40454 2.86948,5.19443 4.25412,8.38422 z"
         id="path146"
         style="fill:#077dc1;fill-opacity:1;stroke-width:2.43792" />
      <path
         fill="#1d3f6c"
         opacity="1"
         stroke="none"
         d="m 606.88843,553.91986 c -1.74079,1.64758 -3.67603,3.04028 -5.91144,4.53796 0.25574,-3.30883 2.30756,-4.88476 5.91144,-4.53796 z"
         id="path150"
         style="fill:#077dc1;fill-opacity:1;stroke-width:2.43792" />
      <path
         fill="#85aad3"
         opacity="1"
         stroke="none"
         d="m 411.8494,281.36783 c 2.11419,1.09427 4.11969,2.53705 6.12637,4.3273 -2.07758,-1.09461 -4.15634,-2.53668 -6.12637,-4.3273 z"
         id="path152"
         style="fill:#077dc1;fill-opacity:1;stroke-width:2.43792" />
      <path
         fill="#1f416c"
         opacity="1"
         stroke="none"
         d="m 443.02606,272.43646 c -0.73144,-1.88363 -1.46118,-4.19412 -2.21802,-6.88971 3.93988,0.84171 1.44379,4.18906 2.21802,6.88971 z"
         id="path158"
         style="fill:#077dc1;fill-opacity:1;stroke-width:2.43792" />
      <path
         fill="#a8c3e3"
         opacity="1"
         stroke="none"
         d="m 422.06888,288.96884 c 1.32409,1.13907 2.64822,2.27814 3.94751,3.75025 -1.52719,-0.53165 -3.02954,-1.39634 -4.6431,-2.74289 0.10529,-0.73746 0.37424,-0.91263 0.69559,-1.00736 z"
         id="path160"
         style="fill:#077dc1;fill-opacity:1;stroke-width:2.43792" />
      <path
         fill="#b7cee5"
         opacity="1"
         stroke="none"
         d="m 438.50153,233.72241 c -0.78217,-1.62823 -1.50712,-3.61528 -2.11396,-5.99356 0.80246,1.61743 1.48682,3.6261 2.11396,5.99356 z"
         id="path162"
         style="fill:#077dc1;fill-opacity:1;stroke-width:2.43792" />
      <path
         fill="#1d436e"
         opacity="1"
         stroke="none"
         d="m 301.25067,205.88934 c -0.25598,-1.01162 -0.16019,-2.07055 -0.15155,-3.52095 0.5156,-0.31215 1.11841,-0.2328 1.72122,-0.15347 -0.40597,1.20904 -0.81192,2.41809 -1.56967,3.67442 z"
         id="path166"
         style="fill:#077dc1;fill-opacity:1;stroke-width:2.43792" />
      <path
         fill="#5370a3"
         opacity="1"
         stroke="none"
         d="m 667.66998,513.92157 c -1.0888,1.09949 -2.51977,2.14813 -4.23925,2.85455 0.0457,-0.79199 0.37994,-1.2417 0.71423,-1.6914 1.06097,-0.40467 2.12189,-0.80933 3.52502,-1.16315 z"
         id="path168"
         style="fill:#077dc1;fill-opacity:1;stroke-width:2.43792" />
      <path
         fill="#85aad3"
         opacity="1"
         stroke="none"
         d="m 421.89832,288.68518 c -0.15079,0.37839 -0.41974,0.55356 -0.74787,1.02539 -1.28647,-0.88763 -2.46127,-1.99148 -3.41412,-3.39007 1.47842,0.49716 2.73495,1.28912 4.16199,2.36468 z"
         id="path170"
         style="fill:#077dc1;fill-opacity:1;stroke-width:2.43792" />
      <path
         fill="#1d3f6c"
         opacity="1"
         stroke="none"
         d="m 663.75745,515.06445 c 0.0532,0.46997 -0.28101,0.91968 -0.67432,1.64319 -0.059,0.27387 -0.0824,0.2923 -0.41382,0.25775 -0.93255,0.17389 -1.53375,0.38239 -2.25696,0.46405 -0.12207,-0.12677 -0.36676,-0.37964 -0.36676,-0.37964 1.10816,-0.66851 2.21625,-1.33703 3.71186,-1.98535 z"
         id="path172"
         style="fill:#077dc1;fill-opacity:1;stroke-width:2.43792" />
      <path
         fill="#26426c"
         opacity="1"
         stroke="none"
         d="m 494.7785,376.89752 c -0.99072,-0.32913 -1.94626,-1.03616 -3.04849,-1.99939 0.93008,0.36972 2.00687,0.99561 3.04849,1.99939 z"
         id="path174"
         style="fill:#077dc1;fill-opacity:1;stroke-width:2.43792" />
      <path
         fill="#1f416c"
         opacity="1"
         stroke="none"
         d="m 464.26715,321.99771 c 0.8587,0.31659 1.64548,0.96072 2.55518,1.88938 -0.7938,-0.33094 -1.71045,-0.94639 -2.55518,-1.88938 z"
         id="path176"
         style="fill:#077dc1;fill-opacity:1;stroke-width:2.43792" />
      <path
         fill="#26426c"
         opacity="1"
         stroke="none"
         d="m 487.34259,370.19818 c -0.91269,-0.17068 -1.6506,-0.70639 -2.54498,-1.47559 0.80227,0.21451 1.76098,0.66254 2.54498,1.47559 z"
         id="path180"
         style="fill:#077dc1;fill-opacity:1;stroke-width:2.43792" />
      <path
         fill="#1d3f6c"
         opacity="1"
         stroke="none"
         d="m 634.90857,535.08728 c -0.46436,0.66669 -1.30939,1.30652 -2.4679,2.01343 0.48682,-0.63538 1.28705,-1.33783 2.4679,-2.01343 z"
         id="path182"
         style="fill:#077dc1;fill-opacity:1;stroke-width:2.43792" />
      <path
         fill="#26426c"
         opacity="1"
         stroke="none"
         d="m 491.49149,374.08923 c -0.89209,-0.22494 -1.65607,-0.80896 -2.53342,-1.66668 0.81158,0.25338 1.73657,0.78048 2.53342,1.66668 z"
         id="path184"
         style="fill:#077dc1;fill-opacity:1;stroke-width:2.43792" />
      <path
         fill="#1d3f6c"
         opacity="1"
         stroke="none"
         d="m 600.11279,558.55646 c -0.23565,0.6278 -0.80511,1.09411 -1.64978,1.62274 0.25513,-0.55322 0.78546,-1.16876 1.64978,-1.62274 z"
         id="path186"
         style="fill:#077dc1;fill-opacity:1;stroke-width:2.43792" />
      <path
         fill="#26426c"
         opacity="1"
         stroke="none"
         d="m 496.87817,378.89972 c -0.63339,-0.11789 -1.29232,-0.58939 -2.05236,-1.3537 0.60824,0.13815 1.3175,0.56912 2.05236,1.3537 z"
         id="path190"
         style="fill:#077dc1;fill-opacity:1;stroke-width:2.43792" />
      <path
         fill="#1d3f6c"
         opacity="1"
         stroke="none"
         d="m 658.03528,519.03272 c 0.42218,-0.67035 0.89807,-1.28937 1.69214,-1.94568 0.31817,-0.0372 0.56286,0.21563 0.51538,0.54443 -0.10474,0.66901 -0.16187,1.00915 -0.219,1.3493 0,0 -0.0239,0.0197 -0.33447,-0.0131 -0.70453,0.0509 -1.09845,0.13471 -1.49243,0.21851 0,0 -0.10785,-0.10212 -0.16162,-0.15344 z"
         id="path192"
         style="fill:#077dc1;fill-opacity:1;stroke-width:2.43792" />
      <path
         fill="#1d3f6c"
         opacity="1"
         stroke="none"
         d="m 584.2323,534.76141 c -0.0766,-0.36877 0.0884,-0.88769 0.47076,-1.57867 0.0685,0.36151 -0.0803,0.89496 -0.47076,1.57867 z"
         id="path198"
         style="fill:#077dc1;fill-opacity:1;stroke-width:2.43792" />
      <path
         fill="#1d3f6c"
         opacity="1"
         stroke="none"
         d="m 587.22315,526.79358 c -0.0711,-0.35724 0.0848,-0.87933 0.45959,-1.56751 0.0684,0.35682 -0.0821,0.8797 -0.45959,1.56751 z"
         id="path200"
         style="fill:#077dc1;fill-opacity:1;stroke-width:2.43792" />
      <path
         fill="#1d3f6c"
         opacity="1"
         stroke="none"
         d="m 597.87988,560.17285 c -0.11535,0.39136 -0.56305,0.75464 -1.3031,1.17706 0.1286,-0.3623 0.54962,-0.78369 1.3031,-1.17706 z"
         id="path202"
         style="fill:#077dc1;fill-opacity:1;stroke-width:2.43792" />
      <path
         fill="#26426c"
         opacity="1"
         stroke="none"
         d="m 488.84848,371.83444 c -0.4119,0.0315 -0.83261,-0.26471 -1.34146,-0.80999 0.3855,-0.005 0.85904,0.23852 1.34146,0.80999 z"
         id="path204"
         style="fill:#077dc1;fill-opacity:1;stroke-width:2.43792" />
      <path
         fill="#b4c8e2"
         opacity="1"
         stroke="none"
         d="m 452.08609,340.63934 c -0.59067,0.26084 -1.16025,0.17292 -1.86014,-0.18194 0.54019,-0.23352 1.2107,-0.20017 1.86014,0.18194 z"
         id="path206"
         style="fill:#077dc1;fill-opacity:1;stroke-width:2.43792" />
      <path
         fill="#1d3f6c"
         opacity="1"
         stroke="none"
         d="m 595.97125,561.31555 c -0.0568,0.43408 -0.45172,0.79431 -1.11505,1.21485 0.0801,-0.38935 0.42847,-0.83899 1.11505,-1.21485 z"
         id="path208"
         style="fill:#077dc1;fill-opacity:1;stroke-width:2.43792" />
      <path
         fill="#5370a3"
         opacity="1"
         stroke="none"
         d="m 670.91589,511.94986 c -0.20532,0.33597 -0.75396,0.67239 -1.62744,1.03384 0.21155,-0.32776 0.74787,-0.6806 1.62744,-1.03384 z"
         id="path210"
         style="fill:#077dc1;fill-opacity:1;stroke-width:2.43792" />
      <path
         fill="#1d3f6c"
         opacity="1"
         stroke="none"
         d="m 594.16296,562.59595 c 0.18061,0.41632 -0.0326,0.64129 -0.60821,0.7699 -0.0482,-0.26917 0.14398,-0.55738 0.60821,-0.7699 z"
         id="path214"
         style="fill:#077dc1;fill-opacity:1;stroke-width:2.43792" />
      <path
         fill="#b7cee5"
         opacity="1"
         stroke="none"
         d="m 439.20474,238.70814 c -0.1979,0.002 -0.34845,-0.24969 -0.35174,-0.60224 0.23123,0.049 0.31515,0.19891 0.35174,0.60224 z"
         id="path216"
         style="fill:#077dc1;fill-opacity:1;stroke-width:2.43792" />
      <path
         fill="#b7cee5"
         opacity="1"
         stroke="none"
         d="m 439.49808,242.26501 c -0.24985,-0.14155 -0.26395,-0.484 -0.21677,-1.33813 0.19168,0.0379 0.32211,0.58758 0.21677,1.33813 z"
         id="path218"
         style="fill:#077dc1;fill-opacity:1;stroke-width:2.43792" />
      <path
         fill="#b7cee5"
         opacity="1"
         stroke="none"
         d="m 454.47803,248.50229 c 0.02,0.0111 -0.02,-0.0111 0,0 z"
         id="path220"
         style="fill:#077dc1;fill-opacity:1;stroke-width:2.43792" />
      <path
         fill="#bac9e0"
         opacity="1"
         stroke="none"
         d="m 507.78381,389.89752 c -0.1231,0.14072 -0.32983,0.0808 -0.60052,-0.19537 0.1156,-0.0902 0.30923,-0.02 0.60052,0.19537 z"
         id="path222"
         style="fill:#077dc1;fill-opacity:1;stroke-width:2.43792" />
      <path
         fill="#1d3f6c"
         opacity="1"
         stroke="none"
         d="m 588.23523,524.80676 c -0.10004,-0.18652 0.0612,-0.40777 0.47876,-0.6676 0.10901,0.1911 -0.049,0.41492 -0.47876,0.6676 z"
         id="path228"
         style="fill:#077dc1;fill-opacity:1;stroke-width:2.43792" />
      <path
         fill="#b4c8e2"
         opacity="1"
         stroke="none"
         d="m 453.20557,341.62604 c -0.4845,0.21789 -0.82999,0.066 -1.19208,-0.38892 0.43265,-0.19571 0.88186,-0.0883 1.19208,0.38892 z"
         id="path230"
         style="fill:#077dc1;fill-opacity:1;stroke-width:2.43792" />
      <path
         fill="#5370a3"
         opacity="1"
         stroke="none"
         d="m 668.75806,513.04382 c 0.0737,0.20649 -0.11304,0.49018 -0.54297,0.87061 -0.068,-0.19995 0.10724,-0.49658 0.54297,-0.87061 z"
         id="path232"
         style="fill:#077dc1;fill-opacity:1;stroke-width:2.43792" />
      <path
         fill="#03356e"
         opacity="1"
         stroke="none"
         d="m 590.9397,471.04394 c 0.67529,-0.0182 1.19195,0.22535 1.88238,0.6988 0.18018,0.67831 0.18653,1.12677 0.18537,1.91623 -0.007,0.34103 -0.0172,0.35324 -0.0172,0.35324 -1.39019,-0.3685 -4.6322,0.77459 -2.05053,-2.96827 z"
         id="path234"
         style="fill:#077dc1;fill-opacity:1;stroke-width:2.43792" />
      <path
         fill="#03356e"
         opacity="1"
         stroke="none"
         d="m 593.0061,473.99524 c 0.11408,0.12921 0.22211,0.26315 0.33008,0.39709 -0.0795,-0.0436 -0.15893,-0.0873 -0.29217,-0.25552 -0.0538,-0.1246 -0.044,-0.13681 -0.0379,-0.14157 z"
         id="path238"
         style="fill:#077dc1;fill-opacity:1;stroke-width:2.43792" />
      <path
         fill="#03356e"
         opacity="1"
         stroke="none"
         d="m 593.32202,571.97528 c -0.31946,-0.70361 -0.3139,-1.43494 -0.30188,-2.53192 0.43659,-0.74182 0.8667,-1.11786 1.57544,-1.57819 2.5318,2.08875 1.5976,3.32294 -1.27356,4.11011 z"
         id="path240"
         style="fill:#077dc1;fill-opacity:1;stroke-width:2.43792" />
      <path
         fill="#5370a3"
         opacity="1"
         stroke="none"
         d="m 660.37048,519.09039 c -0.28955,-0.44977 -0.23242,-0.78991 -0.006,-1.33209 0.77075,-0.41052 1.37195,-0.61902 2.29345,-0.78302 -0.43347,0.77118 -1.18725,1.49799 -2.28778,2.11511 z"
         id="path242"
         style="fill:#077dc1;fill-opacity:1;stroke-width:2.43792" />
      <path
         fill="#5370a3"
         opacity="1"
         stroke="none"
         d="m 658.19104,519.48242 c 0.39984,-0.38006 0.79376,-0.46387 1.48767,-0.5036 0.12811,0.56982 -0.0438,1.09558 -0.21564,1.62134 -0.42596,-0.27387 -0.85193,-0.54767 -1.27203,-1.11774 z"
         id="path244"
         style="fill:#077dc1;fill-opacity:1;stroke-width:2.43792" />
      <path
         fill="#edeeee"
         opacity="1"
         stroke="none"
         d="m 445.42798,340.24493 c -0.0444,-0.27365 0.2377,-0.70929 0.71838,-0.8673 0.002,0.42019 -0.19507,0.56271 -0.71838,0.8673 z"
         id="path246"
         style="fill:#077dc1;fill-opacity:1;stroke-width:2.43792" />
      <rect
         style="fill:#077dc1;fill-opacity:1;stroke-width:8.60267;stroke-miterlimit:4;stroke-dasharray:none"
         id="rect956"
         width="45.715374"
         height="38.953613"
         x="351.75848"
         y="230.6348" />
      <rect
         style="fill:#077dc1;fill-opacity:1;stroke-width:8.60267;stroke-miterlimit:4;stroke-dasharray:none"
         id="rect962"
         width="15.066964"
         height="25.430096"
         x="385.71429"
         y="91.357254" />
    </g>
  </g>
</svg>
